Parkosz1907.sfdir
StartChar: a
Encoding: 97 97 5
Width: 538
VWidth: 0
Flags: HW
LayerCount: 2
Back
Fore
SplineSet
175 335 m 4
 206 354 235 364 260 364 c 4
 280 364 297 357 307 342 c 4
 315 331 319 325 324 325 c 4
 328 325 333 329 341 336 c 4
 353 347 369 353 383 353 c 4
 395 353 405 349 408 340 c 4
 408 339 408 339 408 338 c 4
 408 323 391 262 369 193 c 4
 346 124 330 64 330 51 c 4
 330 50 330 49 330 49 c 4
 334 42 340 39 346 39 c 4
 364 39 386 66 398 107 c 4
 403 125 413 143 419 145 c 4
 420 145 422 146 423 146 c 4
 429 146 431 140 431 131 c 4
 431 104 410 50 385 27 c 4
 371 15 348 8 328 8 c 4
 312 8 299 12 294 21 c 4
 290 29 283 48 280 63 c 6
 274 91 l 5
 241 52 l 6
 213 20 187 4 158 4 c 4
 145 4 131 7 116 14 c 4
 74 31 55 73 55 122 c 4
 55 196 99 286 175 335 c 4
291 310 m 4
 282 323 270 334 263 334 c 4
 216 331 180 277 137 145 c 4
 128 116 123 93 123 74 c 4
 123 45 135 30 158 30 c 4
 201 30 234 62 265 131 c 4
 290 188 303 232 303 265 c 4
 303 283 299 298 291 310 c 4
EndSplineSet
Validated: 1
EndChar
StartChar: c
Encoding: 99 99 30
Width: 350
VWidth: 0
Flags: HW
LayerCount: 2
Back
Fore
SplineSet
163 354 m 0
 168 357 174 359 179 359 c 0
 195 359 211 348 225 348 c 0
 266 348 298 324 298 284 c 0
 298 254 272 223 250 223 c 0
 248 223 247 223 245 223 c 0
 234 225 231 234 231 261 c 0
 231 265 231 269 231 273 c 0
 231 278 231 283 231 288 c 0
 231 315 228 320 215 320 c 0
 171 320 114 191 114 103 c 0
 114 95 114 87 115 80 c 0
 121 35 121 34 154 31 c 0
 158 31 161 31 164 31 c 0
 186 31 196 39 231 79 c 0
 255 107 278 130 282 130 c 0
 287 130 289 128 289 123 c 0
 289 114 278 95 256 69 c 0
 219 24 180 2 146 2 c 0
 98 2 60 44 49 122 c 0
 48 133 47 141 47 150 c 0
 47 169 52 186 65 213 c 0
 91 269 121 328 163 354 c 0
EndSplineSet
Validated: 1
EndChar
StartChar: d
Encoding: 100 100 4
Width: 508
VWidth: 0
Flags: HW
LayerCount: 2
Back
Fore
SplineSet
272 320 m 0
 256 326 248 329 243 329 c 0
 237 329 234 337 234 328 c 0
 234 320 229 333 224 333 c 0
 218 333 214 319 214 325 c 0
 214 330 212 320 206 320 c 0
 194 320 181 296 151 218 c 0
 139 187 130 124 130 86 c 0
 130 71 131 61 134 57 c 0
 142 48 151 43 161 43 c 0
 211 43 282 148 292 255 c 0
 293 271 294 282 294 290 c 0
 294 310 289 313 272 320 c 0
285 549 m 0
 285 555 321 559 375 559 c 0
 447 559 466 556 466 545 c 0
 466 538 453 492 437 443 c 0
 377 262 313 61 313 53 c 0
 313 48 320 44 328 44 c 0
 346 44 386 87 410 132 c 0
 422 156 432 168 440 168 c 0
 444 168 448 165 451 159 c 0
 452 158 452 156 452 154 c 0
 452 129 405 52 374 29 c 0
 358 16 332 6 316 6 c 0
 292 6 285 11 275 37 c 0
 268 54 262 70 260 71 c 0
 257 71 244 60 231 45 c 0
 211 23 193 13 165 10 c 0
 156 9 150 8 144 8 c 0
 126 8 116 15 97 35 c 0
 70 62 58 100 58 140 c 0
 58 215 101 301 176 350 c 0
 194 362 214 367 233 367 c 0
 266 367 274 320 306 320 c 0
 308 320 317 328 320 328 c 0
 329 328 333 333 337 363 c 0
 340 384 351 425 362 456 c 0
 372 482 377 501 377 513 c 0
 377 535 362 540 328 540 c 0
 304 540 285 544 285 549 c 0
EndSplineSet
Validated: 1
EndChar
StartChar: e
Encoding: 101 101 6
Width: 315
VWidth: 0
Flags: HW
LayerCount: 2
Back
Fore
SplineSet
181 352 m 0
 194 358 207 360 219 360 c 0
 261 360 293 329 293 280 c 0
 293 227 266 204 186 190 c 0
 151 184 118 173 112 166 c 0
 106 159 98 135 94 113 c 0
 92 103 91 93 91 85 c 0
 91 54 104 36 129 36 c 0
 161 36 216 71 238 106 c 0
 250 125 261 134 267 134 c 0
 272 134 275 129 275 119 c 0
 275 95 201 22 165 10 c 0
 153 6 141 4 130 4 c 0
 99 4 72 20 51 50 c 0
 37 70 32 82 32 104 c 0
 32 112 33 122 34 134 c 0
 37 162 47 228 58 249 c 0
 79 289 151 340 181 352 c 0
243 337 m 0
 236 340 232 342 229 342 c 0
 224 342 218 338 204 331 c 0
 178 318 135 259 126 223 c 0
 124 215 122 210 122 206 c 0
 122 202 125 200 131 200 c 0
 136 200 144 201 155 203 c 0
 214 213 220 216 239 247 c 0
 251 266 257 288 257 306 c 0
 257 321 252 333 243 337 c 0
EndSplineSet
Validated: 1
EndChar
StartChar: f
Encoding: 102 102 35
Width: 536
VWidth: 0
Flags: HW
LayerCount: 2
Back
Fore
SplineSet
401 465 m 0
 421.25 480.75 431.9375 486.9375 444.875 486.9375 c 0
 449.1875 486.9375 453.75 486.25 459 485 c 0
 474 482 488 475 491 470 c 0
 499.469288317 457.621809383 504.118697336 440.150446368 504.118697336 426.157718071 c 0
 504.118697336 418.672199194 502.788130266 412.1821954 500 408 c 0
 489 389 472 385 472 401 c 0
 472 409 467 414 459 414 c 0
 449 414 447 420 451 440 c 0
 451.957607263 445.554122128 452.475048925 450.117871652 452.475048925 453.698273667 c 0
 452.475048925 460.259404751 450.737427207 463.518354904 446.786645218 463.518354904 c 0
 441.636466971 463.518354904 432.725393319 457.980314656 419 447 c 0
 394 428 360 367 351 325 c 0
 349.717381521 318.073860212 348.763785074 312.924439401 348.763785074 309.011565099 c 0
 348.763785074 297.670977967 356.773995225 296.717381521 388 293 c 0
 442 285 443 272 389 272 c 0
 366 272 344 267 339 261 c 0
 334 255 325 224 318 191 c 0
 305 128 250 -12 214 -73 c 0
 184 -125 133 -171 94 -183 c 0
 82.1117242594 -186.96275858 73.713105311 -188.986818942 66.4993652556 -188.986818942 c 0
 57.3296544435 -188.986818942 50.0744828396 -185.716321893 40 -179 c 0
 24.8728722252 -169.419485743 17.3734109409 -152.974071644 17.3734109409 -136.97145446 c 0
 17.3734109409 -121.237807981 24.6228901823 -105.93219852 39 -98 c 0
 48 -93.5 58.6875 -91.25 66.421875 -91.25 c 0
 69 -91.25 71.25 -91.5 73 -92 c 0
 81.1436941916 -95.2574776767 85.4555803116 -107.062834898 85.4555803116 -119.414770859 c 0
 85.4555803116 -129.81406242 82.3992187545 -140.600781246 76 -147 c 0
 71.0861199112 -151.913880089 68.914608018 -155.757567711 68.914608018 -158.444569488 c 0
 68.914608018 -161.440642521 71.6144049312 -162.998631385 76.2226277667 -162.998631385 c 0
 83.4616086469 -162.998631385 95.4099639712 -159.154021617 109 -151 c 0
 132 -139 148 -118 167 -80 c 0
 182 -51 195 -21 195 -14 c 0
 195 -7 212 54 233 122 c 0
 254 190 271 249 271 254 c 0
 271 259 254 263 233 263 c 0
 204.555555556 263 196.654320988 265.37037037 196.654320988 274.325102881 c 0
 196.654320988 275.444444444 196.777777778 276.666666667 197 278 c 0
 199.354248689 287.416994756 204.787656761 290.675670746 226.348616708 290.675670746 c 0
 232.262613059 290.675670746 239.389982519 290.430500874 248 290 c 0
 256.792156109 289.560392195 264.038272037 289.314039412 269.993217033 289.314039412 c 0
 291.130352398 289.314039412 296 292.41784293 296 301 c 0
 296 314 315 351 352 412 c 0
 361 426 383 451 401 465 c 0
EndSplineSet
Validated: 1
EndChar
StartChar: i
Encoding: 105 105 0
Width: 270
VWidth: 0
Flags: HW
LayerCount: 2
Back
Fore
SplineSet
136 479 m 0
 139 487 149 491 162 491 c 0
 172 491 184 488 194 483 c 0
 206 477 211 468 211 459 c 0
 211 441 191 422 164 422 c 0
 161 422 159 423 156 423 c 0
 142 425 133 441 133 460 c 0
 133 466 134 473 136 479 c 0
102 325 m 0
 114 332 125 335 135 335 c 0
 158 335 174 316 180 279 c 0
 181 274 181 269 181 263 c 0
 181 223 162 167 122 90 c 0
 114 74 110 64 110 56 c 0
 110 52 111 49 114 46 c 0
 117 43 121 41 126 41 c 0
 143 41 168 65 182 98 c 0
 192 121 204 134 213 134 c 0
 219 134 222 128 222 117 c 0
 222 115 222 112 222 110 c 0
 217 68 147 5 106 5 c 0
 72 5 55 34 55 75 c 0
 55 113 70 162 100 209 c 0
 106 219 114 229 118 232 c 0
 122 234 127 252 130 269 c 0
 131 275 132 281 132 285 c 0
 132 295 129 300 123 300 c 0
 114 300 98 289 74 265 c 0
 50 242 38 232 33 232 c 0
 29 232 28 237 28 246 c 0
 28 263 71 308 102 325 c 0
EndSplineSet
Validated: 1
EndChar
StartChar: k
Encoding: 107 107 1
Width: 445
VWidth: 0
Flags: HW
LayerCount: 2
Back
Fore
SplineSet
145 551 m 0
 171 557 189 561 203 561 c 0
 217 561 227 557 237 549 c 0
 245 543 249 538 249 528 c 0
 249 514 242 492 226 448 c 0
 199 374 170 279 165 248 c 0
 163 238 162 230 162 225 c 0
 162 214 168 214 190 214 c 0
 204 214 213 212 222 205 c 1
 225 228 268 302 296 325 c 0
 316 342 330 351 345 351 c 0
 355 351 366 346 379 337 c 0
 393 328 400 311 400 296 c 0
 400 281 394 267 381 260 c 0
 372 255 364 253 356 253 c 0
 339 253 326 266 326 288 c 0
 326 305 323 313 318 313 c 0
 312 313 302 300 289 274 c 0
 272 241 246 199 234 194 c 1
 238 189 242 183 247 175 c 0
 264 149 270 137 270 113 c 0
 270 106 269 98 268 88 c 0
 267 77 266 67 266 60 c 0
 266 46 268 40 273 40 c 0
 279 40 305 63 332 91 c 0
 359 119 372 131 377 131 c 0
 380 131 381 128 381 122 c 0
 381 82 296 3 252 3 c 0
 220 3 200 24 200 55 c 0
 200 60 200 64 201 69 c 0
 210 114 214 141 214 157 c 0
 214 176 208 181 195 187 c 0
 185 192 177 194 170 194 c 0
 153 194 144 178 130 135 c 0
 96 28 86 6 58 6 c 0
 40 6 33 16 33 29 c 0
 33 38 38 53 47 74 c 0
 55 93 65 123 69 141 c 0
 73 158 97 239 123 319 c 0
 149 400 170 480 170 496 c 0
 170 524 168 526 138 526 c 0
 93 526 97 539 145 551 c 0
EndSplineSet
Validated: 1
EndChar
StartChar: o
Encoding: 111 111 3
Width: 328
VWidth: 0
Flags: HW
LayerCount: 2
Back
Fore
SplineSet
164 349 m 0
 178 354 191 356 203 356 c 0
 247 356 279 326 297 267 c 0
 306 237 310 212 310 189 c 0
 310 138 287 99 234 45 c 0
 193 5 185 0 149 0 c 0
 69 0 21 59 21 155 c 0
 21 237 84 323 164 349 c 0
242 305 m 0
 231 315 219 320 207 320 c 0
 157 320 104 239 94 133 c 0
 93 119 92 107 92 96 c 0
 92 53 104 36 132 36 c 0
 175 36 199 64 223 140 c 0
 240 192 249 242 249 274 c 0
 249 289 247 300 242 305 c 0
EndSplineSet
Validated: 1
EndChar
StartChar: q
Encoding: 113 113 8
Width: 361
VWidth: 0
Flags: HW
LayerCount: 2
Back
Fore
SplineSet
157 339 m 0
 176 349 193 354 208 354 c 0
 232 354 251 341 263 314 c 0
 271 296 279 287 286 287 c 0
 293 287 299 295 306 309 c 0
 311 319 318 328 322 328 c 0
 326 328 328 318 328 304 c 0
 328 289 325 269 320 256 c 0
 315 245 303 206 293 170 c 0
 282 134 261 63 244 12 c 0
 228 -39 214 -92 212 -106 c 0
 212 -110 211 -114 211 -117 c 0
 211 -132 218 -134 253 -137 c 0
 286 -140 298 -145 300 -157 c 0
 300 -158 300 -159 300 -160 c 0
 300 -168 291 -171 239 -171 c 0
 221 -171 198 -170 168 -170 c 0
 50 -168 34 -166 32 -153 c 0
 32 -152 31 -150 31 -149 c 0
 31 -140 43 -138 80 -135 c 2
 131 -133 l 1
 143 -93 l 2
 149 -71 164 -34 175 -10 c 0
 186 11 191 23 191 29 c 0
 191 34 188 36 182 37 c 0
 181 37 180 37 180 37 c 0
 172 37 158 30 149 21 c 0
 139 11 132 7 124 7 c 0
 119 7 114 8 108 11 c 0
 55 33 24 85 24 142 c 0
 24 165 29 188 39 211 c 0
 58 257 113 316 157 339 c 0
241 300 m 0
 234 313 222 319 207 319 c 0
 181 319 149 300 132 268 c 0
 101 209 84 134 84 86 c 0
 84 57 90 38 104 38 c 0
 147 38 214 107 232 169 c 0
 242 203 247 237 247 263 c 0
 247 280 245 292 241 300 c 0
EndSplineSet
Validated: 1
EndChar
StartChar: r
Encoding: 114 114 10
Width: 376
VWidth: 0
Flags: HW
LayerCount: 2
Back
Fore
SplineSet
118 311 m 0
 130 319 138 323 146 323 c 0
 154 323 161 320 171 313 c 0
 182 304 186 288 187 249 c 0
 188 216 190 203 195 203 c 0
 196 203 197 204 199 205 c 0
 205 210 210 218 210 224 c 0
 210 234 252 287 262 288 c 1
 262 294 269 302 284 310 c 0
 299 318 306 322 312 322 c 0
 317 322 321 319 330 314 c 0
 341 308 347 291 347 273 c 0
 347 259 343 246 335 239 c 0
 328 233 320 230 314 230 c 0
 301 230 291 240 289 258 c 0
 287 271 281 281 274 281 c 0
 271 281 269 281 267 282 c 1
 268 281 268 280 268 280 c 0
 268 275 242 246 226 222 c 0
 208 195 193 169 193 165 c 0
 193 162 183 139 172 115 c 0
 160 91 145 57 138 39 c 0
 128 17 121 8 108 8 c 0
 107 8 107 8 106 8 c 0
 82 8 71 12 71 26 c 0
 71 36 75 49 83 68 c 0
 93 94 106 133 112 157 c 0
 118 181 129 211 137 225 c 0
 146 243 150 256 150 264 c 0
 150 269 148 272 144 272 c 0
 138 272 127 264 113 247 c 0
 99 231 83 221 74 221 c 0
 68 221 65 224 65 231 c 0
 65 246 99 297 118 311 c 0
EndSplineSet
Validated: 1
EndChar
StartChar: s
Encoding: 115 115 11
Width: 301
VWidth: 0
Flags: HW
LayerCount: 2
Back
Fore
SplineSet
136 344 m 0
 145 348 158 350 170 350 c 0
 200 350 233 340 250 325 c 0
 264 311 269 301 269 282 c 0
 269 278 269 274 269 270 c 0
 266 237 264 235 240 235 c 0
 220 235 215 236 215 257 c 0
 215 262 216 268 216 276 c 2
 217 317 l 1
 184 317 l 2
 146 317 124 294 124 270 c 0
 124 252 134 234 157 222 c 0
 217 189 243 161 243 121 c 0
 243 106 239 90 232 71 c 0
 214 24 185 5 132 4 c 0
 131 4 130 4 129 4 c 0
 78 4 47 26 30 74 c 0
 25 86 23 96 23 105 c 0
 23 126 37 136 64 136 c 0
 87 136 103 122 103 105 c 0
 103 99 100 91 94 85 c 0
 85 75 80 65 80 58 c 0
 80 42 98 33 131 33 c 0
 133 33 134 33 135 33 c 0
 167 33 188 47 196 73 c 0
 198 80 199 87 199 93 c 0
 199 114 186 130 156 146 c 0
 94 176 72 203 72 245 c 0
 72 284 100 328 136 344 c 0
EndSplineSet
Validated: 1
EndChar
StartChar: t
Encoding: 116 116 12
Width: 261
VWidth: 0
Flags: HW
LayerCount: 2
Back
Fore
SplineSet
134 439 m 4
 136 443 161 445 180 445 c 4
 192 445 202 444 202 442 c 4
 202 440 195 418 186 392 c 4
 175 361 170 343 170 331 c 4
 170 317 179 314 198 314 c 4
 220 314 226 313 226 303 c 4
 226 301 225 298 225 296 c 4
 223 280 216 277 189 275 c 6
 156 272 l 5
 132 185 l 6
 115 124 106 76 106 52 c 4
 106 41 108 35 112 35 c 4
 121 35 154 76 173 111 c 4
 182 128 195 142 200 142 c 4
 207 142 210 139 210 132 c 4
 210 119 197 94 171 59 c 4
 136 11 129 6 100 5 c 4
 96 5 92 4 88 4 c 4
 74 4 60 7 55 10 c 4
 46 16 40 47 40 75 c 4
 40 92 42 108 47 117 c 4
 54 132 87 255 87 270 c 4
 87 272 75 273 58 273 c 4
 35 273 30 276 32 287 c 4
 33 298 43 302 68 304 c 4
 106 307 109 311 124 400 c 4
 127 418 132 436 134 439 c 4
EndSplineSet
Validated: 1
EndChar
StartChar: u
Encoding: 117 117 13
Width: 409
VWidth: 0
Flags: HW
LayerCount: 2
Back
Fore
SplineSet
377 156 m 0
 377 139 352 94 352 83 c 0
 352 66 297 10 279 10 c 0
 270 10 254 18 243 29 c 0
 231 41 227 51 227 73 c 0
 227 79 227 86 228 95 c 0
 228 99 228 104 228 108 c 1
 226 108 110 8 108 8 c 0
 71 8 41 42 41 88 c 0
 41 124 52 169 76 218 c 0
 98 264 109 295 109 310 c 0
 109 315 107 318 104 318 c 0
 98 318 86 309 70 290 c 0
 56 273 39 263 29 263 c 0
 23 263 19 267 19 274 c 0
 19 280 31 298 47 314 c 0
 68 337 81 344 105 344 c 0
 140 344 158 318 158 278 c 0
 158 250 149 215 132 177 c 0
 113 133 95 73 95 52 c 0
 95 44 108 31 118 31 c 0
 120 31 122 32 123 33 c 0
 195 98 224 120 228 120 c 1
 227 136 226 148 224 152 c 0
 223 153 223 155 223 158 c 0
 223 190 270 306 276 324 c 0
 281 344 310 361 332 361 c 0
 343 361 350 355 350 344 c 0
 350 323 335 273 317 231 c 0
 299 192 273 81 273 49 c 0
 273 41 275 38 281 38 c 0
 301 38 342 97 364 157 c 0
 367 165 377 166 377 156 c 0
228 113 m 2
 228 119 l 1
 227 116 227 114 228 113 c 2
EndSplineSet
Validated: 1
EndChar
StartChar: x
Encoding: 120 120 16
Width: 407
VWidth: 0
Flags: HW
LayerCount: 2
Back
Fore
SplineSet
96 292 m 0
 128 323 154 339 177 339 c 0
 200 339 219 322 239 289 c 0
 243 282 246 279 250 279 c 0
 256 279 261 289 281 302 c 0
 313.101911956 322.822861809 329.395797779 331.601513232 334.45344002 331.601513232 c 0
 335.225131657 331.601513232 335.735238484 331.397142274 336 331 c 1
 339 336 343 338 349 338 c 0
 374 338 391 307 391 277 c 0
 391 263 387 249 378 239 c 0
 368 228 358 222 350 222 c 0
 335 222 325 241 325 273 c 0
 325 279 325 286 326 294 c 0
 328 307 330 316 332 323 c 1
 327 316 318 305 306 292 c 0
 257 236 257 207 242 145 c 0
 236 120 233 98 233 81 c 0
 233 48 244 30 261 30 c 0
 280 30 307 51 337 97 c 0
 355 125 364 137 369 137 c 0
 371 137 372 134 373 128 c 0
 373 127 373 126 373 125 c 0
 373 113 364 90 351 72 c 0
 321 28 282 4 251 4 c 0
 230 4 213 15 205 38 c 0
 199 54 195 63 188 63 c 0
 180 63 169 54 151 38 c 0
 135 24 108 10 90 7 c 0
 85 6 80 6 76 6 c 0
 45 6 24 26 24 55 c 0
 24 59 24 64 25 68 c 0
 30 98 43 108 71 108 c 0
 87 108 98 94 98 78 c 0
 98 71 96 63 92 56 c 0
 80 33 81 29 96 29 c 0
 103 29 119 42 133 59 c 0
 154 86 164 112 199 234 c 0
 203 247 205 260 205 271 c 0
 205 295 196 312 181 312 c 0
 159 312 116 275 92 237 c 0
 80 217 67 207 58 207 c 0
 51 207 47 213 47 225 c 0
 47 237 66 263 96 292 c 0
EndSplineSet
Validated: 1
EndChar
StartChar: y
Encoding: 121 121 36
Width: 418
VWidth: 0
Flags: HWO
LayerCount: 2
Fore
SplineSet
158 278 m 0
 158 285 164 289 172 288 c 0
 183.377645726 285.526598755 189.126994831 265.678890553 189.126994831 239.956861544 c 0
 189.126994831 213.68160733 183.127674025 181.276627055 171 155 c 0
 140.589733042 86.576899345 127.037513884 51.468512199 127.037513884 34.9257569298 c 0
 127.037513884 25.3571908474 131.571586251 22 140 22 c 0
 158 22 233 101 255 143 c 0
 265 161 282 200 293 230 c 0
 311 277 317 285 333 285 c 0
 349 285 351 282 349 261 c 0
 348 248 342 226 336 214 c 0
 329 201 324 186 324 180 c 0
 324 175 319 158 313 145 c 0
 307 131 298 106 292 89 c 0
 247 -65 173 -158 96 -159 c 0
 61 -159 40 -140 40 -107 c 0
 40 -82.8509762916 54.5620478805 -67.0231228005 75.0245860181 -67.0231228005 c 0
 79.1350332382 -67.0231228005 83.4835737975 -67.6617996437 88 -69 c 0
 98.8265050253 -72.6088350084 102.359743584 -76.2176700169 102.359743584 -89.2265747928 c 0
 102.359743584 -94.241360135 101.834698995 -100.653010051 101 -109 c 0
 100.084524053 -117.544442176 99.5415353097 -124.133326528 99.5415353097 -129.164489978 c 0
 99.5415353097 -140.62036848 102.356745141 -144 110 -144 c 0
 126 -144 182 -91 182 -76 c 0
 182 -70 188 -52 195 -36 c 0
 226.072798687 34.4316770237 241.05361707 69.4609973787 241.05361707 79.3662088343 c 0
 241.05361707 81.404582845 240.419198651 82.3789831102 239.160045432 82.3789831102 c 0
 234.723008161 82.3789831102 222.528418954 70.2795119911 203 50 c 0
 170 16 154 6 136 6 c 0
 105.871932782 6 90.8681404706 24.2954938378 90.8681404706 59.681655572 c 0
 90.8681404706 95.9415058503 106.621969959 150.146383778 138 221 c 0
 149 246 158 272 158 278 c 0
EndSplineSet
Validated: 524289
EndChar
StartChar: z
Encoding: 122 122 32
Width: 370
VWidth: 0
Flags: HW
LayerCount: 2
Back
Fore
SplineSet
115 301 m 0
 137 324 146 328 179 328 c 0
 211 328 223 323 251 298 c 0
 269 282 288 268 294 268 c 0
 299 268 303 282 303 298 c 0
 303 319 307 328 317 328 c 0
 324 328 332 323 334 317 c 0
 335 314 336 310 336 307 c 0
 336 264 260 188 169 143 c 0
 135 127 107 110 107 107 c 0
 107 100 186 66 209 62 c 0
 212 62 215 61 218 61 c 0
 242 61 264 78 283 111 c 0
 295 131 309 149 313 149 c 0
 318 149 320 145 320 140 c 0
 320 113 267 34 231 16 c 0
 216 10 203 6 191 6 c 0
 168 6 147 18 124 42 c 0
 104 61 88 72 78 72 c 0
 71 72 66 67 66 57 c 0
 66 54 67 51 68 47 c 0
 69 43 69 39 69 35 c 0
 69 18 60 5 49 5 c 0
 44 5 39 8 34 13 c 0
 28 18 25 25 25 33 c 0
 25 71 91 133 204 198 c 0
 238 218 261 235 261 240 c 0
 261 241 261 241 260 241 c 0
 254 243 242 250 235 255 c 0
 223 265 161 285 145 285 c 0
 142 285 128 273 114 258 c 0
 102 245 90 236 85 236 c 0
 85 236 84 236 84 237 c 0
 82 238 82 240 82 243 c 0
 82 255 94 278 115 301 c 0
EndSplineSet
Validated: 1
EndChar
StartChar: ccedilla
Encoding: 231 231 17
Width: 314
VWidth: 0
Flags: HW
LayerCount: 2
Back
Fore
SplineSet
227 304 m 0
 237 318 250 325 260 325 c 0
 269 325 276 320 279 309 c 0
 281 303 282 297 282 291 c 0
 282 261 261 232 240 232 c 0
 235 232 230 234 225 238 c 0
 216 245 212 254 212 265 c 0
 212 277 217 290 227 304 c 0
190 356 m 0
 199 358 208 359 215 359 c 0
 231 359 269 330 272 322 c 0
 272 322 272 322 272 322 c 0
 271 322 247 344 246 344 c 0
 246 344 246 344 246 344 c 0
 246 341 248 334 248 327 c 0
 248 320 245 312 234 312 c 0
 217 312 201 318 187 318 c 0
 176 318 165 314 156 301 c 0
 128 261 110 217 91 135 c 0
 85 110 82 90 82 75 c 0
 82 45 95 32 122 32 c 0
 163 32 186 47 225 100 c 0
 248 131 262 146 269 146 c 0
 273 146 275 141 275 131 c 0
 275 114 230 50 218 50 c 0
 211 50 207 47 157 5 c 0
 135 -13 125 -25 125 -31 c 0
 125 -35 128 -36 134 -36 c 0
 138 -36 142 -36 148 -35 c 0
 151 -34 154 -34 158 -34 c 0
 169 -34 181 -38 189 -44 c 0
 198 -51 202 -59 202 -68 c 0
 202 -86 184 -109 152 -129 c 0
 126 -146 94 -156 75 -156 c 0
 66 -156 60 -154 60 -148 c 0
 60 -138 116 -111 135 -111 c 0
 143 -111 150 -105 150 -98 c 0
 150 -90 143 -85 131 -85 c 0
 119 -85 102 -90 81 -98 c 0
 63 -106 53 -110 48 -110 c 0
 42 -110 42 -105 42 -94 c 0
 42 -85 58 -64 78 -46 c 0
 101 -25 114 -6 114 4 c 0
 114 10 110 14 102 14 c 0
 82 14 43 62 33 98 c 0
 29 111 28 124 28 138 c 0
 28 207 72 284 145 333 c 0
 160 343 180 353 190 356 c 0
EndSplineSet
Validated: 5
EndChar
StartChar: oslash
Encoding: 248 248 33
Width: 460
VWidth: 0
Flags: HW
LayerCount: 2
Back
Fore
SplineSet
266 343 m 0
 258 352 244 356 228 356 c 0
 210 356 191 351 178 341 c 0
 167 332 152 313 145 297 c 0
 130 265 113 195 113 168 c 0
 113 164 113 160 115 159 c 0
 115 159 115 159 116 159 c 0
 123 159 146 179 171 207 c 0
 196 234 243 291 251 297 c 0
 253 301 256 305 260 310 c 0
 268 319 272 325 272 330 c 0
 272 334 270 338 266 343 c 0
315 402 m 0
 315 405 315 408 315 410 c 0
 315 423 320 430 326 430 c 0
 332 430 339 422 343 407 c 0
 344 402 345 398 345 395 c 0
 345 383 340 373 331 363 c 0
 321 352 317 345 317 330 c 0
 317 319 319 305 322 284 c 0
 325 266 326 250 326 235 c 0
 326 189 313 153 284 113 c 0
 268 92 240 67 220 57 c 0
 197 45 164 38 139 38 c 0
 123 38 110 41 106 47 c 0
 102 54 96 57 88 57 c 0
 76 57 61 48 54 34 c 0
 48 19 35 11 25 11 c 0
 17 11 11 16 11 27 c 0
 11 37 19 52 28 60 c 0
 38 69 42 78 42 104 c 0
 42 115 41 129 40 147 c 0
 39 164 38 178 38 189 c 0
 38 220 44 233 60 260 c 0
 89 309 148 361 191 375 c 0
 203 379 212 381 223 381 c 0
 234 381 246 379 261 375 c 0
 277 371 288 368 297 368 c 0
 311 368 316 375 316 390 c 0
 316 393 316 397 315 402 c 0
249 291 m 1
 234 265 166 175 131 137 c 0
 115 120 106 106 106 94 c 0
 106 82 116 74 135 69 c 0
 144 67 152 65 160 65 c 0
 201 65 225 99 248 182 c 0
 259 222 264 248 264 264 c 0
 264 277 261 284 254 286 c 0
 251 287 249 289 249 291 c 1
EndSplineSet
Validated: 1
EndChar
StartChar: gdotaccent
Encoding: 289 289 2
Width: 427
VWidth: 0
Flags: HW
LayerCount: 2
Fore
SplineSet
261 82 m 1
 264 108 280 132 280 144 c 0
 280 146 281 148 281 149 c 0
 282 150 281 151 282 152 c 0
 296 178 304 212 304 239 c 0
 304 247 303 254 302 260 c 0
 297 282 279 293 260 293 c 0
 242 293 222 284 208 265 c 0
 179 227 151 132 151 79 c 0
 151 71 151 64 153 58 c 0
 157 42 168 34 181 34 c 0
 191 34 203 38 215 47 c 0
 225 54 250 74 261 82 c 1
209 314 m 0
 221 319 235 322 249 322 c 0
 283 322 314 306 314 284 c 0
 314 264 330 271 339 294 c 0
 344 307 353 315 361 315 c 0
 368 315 374 310 377 301 c 0
 378 299 378 297 378 294 c 0
 378 281 373 256 365 232 c 0
 355 202 344 162 340 144 c 0
 326 84 283 -26 256 -68 c 0
 217 -129 161 -177 130 -177 c 0
 99 -177 60 -158 52 -140 c 0
 48 -131 47 -122 47 -114 c 0
 47 -97 54 -83 69 -74 c 0
 80 -66 91 -63 101 -63 c 0
 118 -63 130 -74 130 -90 c 0
 130 -99 126 -110 116 -121 c 0
 111 -127 108 -133 108 -137 c 0
 108 -145 115 -150 128 -150 c 0
 132 -150 137 -149 142 -148 c 0
 166 -142 213 -88 218 -61 c 0
 220 -51 231 -24 243 0 c 0
 250 13 256 43 260 72 c 1
 247 56 221 31 205 20 c 0
 191 10 177 6 165 6 c 0
 122 6 90 57 90 120 c 0
 90 148 96 179 111 208 c 0
 132 250 180 301 209 314 c 0
EndSplineSet
Validated: 1
EndChar
StartChar: ij
Encoding: 307 307 18
Width: 447
VWidth: 0
Flags: HW
LayerCount: 2
Back
Fore
SplineSet
127 293 m 4
 145 311 168 321 187 321 c 4
 199 321 209 318 216 311 c 4
 224 303 227 289 227 272 c 4
 227 238 215 191 192 142 c 4
 170 96 159 72 159 60 c 4
 159 49 166 47 180 47 c 4
 218 47 281 133 341 264 c 4
 360 304 367 312 384 312 c 4
 397 312 404 310 404 300 c 4
 404 288 396 266 379 223 c 4
 365 185 342 123 328 86 c 4
 302 17 258 -74 239 -98 c 4
 233 -105 227 -117 224 -124 c 4
 217 -144 149 -175 114 -175 c 4
 74 -175 64 -166 55 -127 c 4
 53 -119 52 -112 52 -106 c 4
 52 -80 67 -66 94 -66 c 4
 96 -66 99 -66 102 -66 c 4
 126 -68 128 -71 130 -104 c 4
 132 -130 137 -141 147 -141 c 4
 166 -141 209 -91 209 -69 c 4
 210 -59 217 -37 226 -21 c 4
 249 22 266 59 273 82 c 4
 274 85 274 87 274 88 c 4
 274 89 274 90 273 90 c 4
 269 90 259 80 238 59 c 4
 204 25 180 8 159 8 c 4
 147 8 136 14 125 27 c 4
 112 42 107 51 107 69 c 4
 107 75 108 82 109 90 c 4
 114 130 138 193 149 193 c 4
 157 193 192 272 192 290 c 4
 192 299 189 303 183 303 c 4
 169 303 141 277 114 235 c 4
 97 208 79 192 70 192 c 4
 66 192 64 195 64 202 c 4
 64 214 95 258 127 293 c 4
343 410 m 4
 345 412 356 414 368 414 c 4
 373 414 379 414 384 413 c 4
 415 411 419 408 421 387 c 4
 421 385 421 384 421 382 c 4
 421 370 418 356 414 351 c 4
 407 343 392 339 377 339 c 4
 361 339 346 343 343 352 c 4
 340 361 338 374 338 385 c 4
 338 396 340 406 343 410 c 4
214 394 m 4
 218 410 225 415 244 415 c 4
 266 415 277 405 277 386 c 4
 277 381 276 375 274 368 c 4
 270 351 264 346 244 346 c 4
 222 346 211 356 211 375 c 4
 211 381 212 387 214 394 c 4
EndSplineSet
Validated: 1
EndChar
StartChar: longs
Encoding: 383 383 19
Width: 670
VWidth: 0
Flags: HW
LayerCount: 2
Back
SplineSet
459.30078125 443.665039062 m 0
 488.036132812 463.65625 509.9296875 471.65234375 535.927734375 471.65234375 c 0
 582.861328125 471.65234375 620.216796875 455.466796875 620.216796875 435.130859375 c 0
 620.216796875 410.534179688 595.313476562 406.276367188 553.168945312 423.66796875 c 0
 514.85546875 439.478515625 514.85546875 439.478515625 491.8671875 419.861328125 c 0
 457.385742188 390.434570312 425.94140625 325.245117188 432.124023438 296 c 0
 435.984375 277.739257812 432.9609375 269.586914062 420.030273438 263.391601562 c 0
 410.452148438 258.801757812 393.2109375 230.782226562 381.23828125 200.34765625 c 0
 369.264648438 169.913085938 354.365234375 133.970703125 347.713867188 119.478515625 c 0
 341.197265625 105.279296875 321.216796875 62.0869140625 303.868164062 24.6953125 c 0
 238.509765625 -116.173828125 163.544921875 -193.565429688 92.4521484375 -193.565429688 c 0
 55.0966796875 -193.565429688 16.783203125 -171.110351562 16.783203125 -149.217773438 c 0
 16.783203125 -143.051757812 26.361328125 -133.169921875 37.85546875 -127.478515625 c 0
 54.712890625 -119.130859375 65.1533203125 -120.173828125 90.0576171875 -132.6953125 c 0
 107.297851562 -141.364257812 127.169921875 -146.174804688 134.596679688 -143.478515625 c 0
 150.297851562 -137.776367188 196.118164062 -54.4345703125 231.837890625 33.3916015625 c 0
 245.27734375 66.4345703125 260.114257812 101.205078125 264.861328125 110.782226562 c 0
 269.580078125 120.301757812 281.069335938 146.869140625 290.244140625 169.478515625 c 0
 299.418945312 192.086914062 310.69140625 210.782226562 315.147460938 210.782226562 c 0
 319.567382812 210.782226562 323.2890625 224.6953125 323.2890625 241.217773438 c 0
 323.2890625 283.740234375 405.663085938 406.349609375 459.30078125 443.665039062 c 0
EndSplineSet
Fore
SplineSet
459 444 m 0
 488 464 510 472 536 472 c 0
 583 472 620 455 620 435 c 0
 620 421 611 413 596 413 c 0
 585 413 570 417 553 424 c 0
 535 431 525 435 518 435 c 0
 510 435 504 430 492 420 c 0
 460 393 431 336 431 304 c 0
 431 301 432 299 432 296 c 0
 433 291 434 287 434 283 c 0
 434 274 430 268 420 263 c 0
 410 259 393 231 381 200 c 0
 369 170 354 134 348 119 c 0
 341 105 321 62 304 25 c 0
 239 -116 164 -194 92 -194 c 0
 55 -194 17 -171 17 -149 c 0
 17 -143 26 -133 38 -127 c 0
 45 -124 51 -122 57 -122 c 0
 66 -122 76 -125 90 -133 c 0
 104 -140 120 -144 129 -144 c 0
 131 -144 133 -144 135 -143 c 0
 150 -138 196 -54 232 33 c 0
 245 66 260 101 265 111 c 0
 270 120 281 147 290 169 c 0
 299 192 311 211 315 211 c 0
 320 211 323 225 323 241 c 0
 323 284 406 406 459 444 c 0
EndSplineSet
Validated: 1
EndChar
StartChar: uni0180
Encoding: 384 384 20
Width: 442
VWidth: 0
Flags: HW
LayerCount: 2
Back
Fore
SplineSet
100 555 m 0
 100 567 116 569 186 569 c 2
 272 569 l 1
 265 534 l 2
 262 514 248 468 236 431 c 0
 222 390 215 366 215 352 c 0
 215 335 227 332 253 331 c 2
 322 328 l 1
 253 325 l 2
 218 323 212 321 199 289 c 0
 170 221 119 57 119 33 c 0
 119 26 144 22 185 22 c 2
 251 22 l 1
 273 72 l 2
 285 99 306 162 321 213 c 0
 336 263 343 286 343 299 c 0
 343 309 338 313 330 319 c 0
 325 323 322 326 322 328 c 0
 322 332 334 333 367 333 c 0
 397 333 421 332 421 331 c 0
 421 326 365 158 339 84 c 2
 312 8 l 1
 173 5 l 2
 160 5 147 5 135 5 c 0
 75 5 34 7 34 11 c 0
 34 16 59 99 90 194 c 0
 161 413 185 487 185 515 c 0
 185 529 179 532 170 535 c 0
 162 538 143 541 127 541 c 0
 110 541 100 546 100 555 c 0
EndSplineSet
Validated: 5
EndChar
StartChar: uni019A
Encoding: 410 410 21
Width: 252
VWidth: 0
Flags: HW
LayerCount: 2
Back
Fore
SplineSet
111 508 m 0
 146 509 181 511 189 512 c 0
 190 512 191 512 192 512 c 0
 200 512 203 508 203 498 c 0
 203 487 200 469 192 442 c 0
 147 277 104 82 104 46 c 0
 104 44 105 42 105 41 c 0
 106 38 109 36 111 36 c 0
 124 36 149 65 169 105 c 0
 179 126 194 143 201 143 c 0
 207 143 209 140 209 134 c 0
 209 114 180 67 142 29 c 0
 126 13 111 6 96 6 c 0
 71 6 51 29 45 70 c 0
 45 73 44 76 44 79 c 0
 44 120 70 231 118 393 c 0
 123 410 127 436 127 451 c 0
 127 477 125 479 91 481 c 0
 71 483 54 489 52 494 c 0
 52 495 52 495 52 496 c 0
 52 503 70 506 111 508 c 0
EndSplineSet
Validated: 1
EndChar
StartChar: uni01A5
Encoding: 421 421 22
Width: 470
VWidth: 0
Flags: HW
LayerCount: 2
Back
Fore
SplineSet
394 295 m 0
 388 312 378 319 366 319 c 0
 326 319 265 229 256 134 c 0
 255 123 254 114 254 107 c 0
 254 86 259 76 271 60 c 0
 284 44 296 35 308 35 c 0
 334 35 359 73 384 148 c 0
 396 183 402 216 402 245 c 0
 402 264 399 281 394 295 c 0
177 336 m 0
 190 346 203 351 216 351 c 0
 241 351 262 331 262 299 c 0
 262 284 266 273 271 273 c 0
 276 273 280 276 280 280 c 0
 280 284 294 302 311 320 c 0
 332 341 351 352 371 352 c 0
 386 352 400 346 415 333 c 0
 439 312 452 265 452 216 c 0
 452 175 444 133 426 102 c 0
 407 68 333 10 308 10 c 0
 289 10 244 58 244 79 c 0
 244 108 229 101 222 70 c 0
 219 54 206 6 194 -37 c 0
 183 -74 177 -110 177 -122 c 0
 177 -124 177 -125 177 -126 c 0
 180 -133 197 -140 215 -141 c 0
 232 -142 249 -148 250 -153 c 0
 250 -161 129 -172 67 -172 c 0
 49 -172 36 -171 33 -169 c 0
 26 -165 23 -160 23 -156 c 0
 23 -147 35 -139 54 -139 c 0
 92 -139 109 -120 125 -60 c 0
 168 106 196 201 207 211 c 0
 215 219 219 237 219 256 c 0
 219 278 213 299 203 303 c 0
 201 304 198 305 196 305 c 0
 181 305 168 286 147 241 c 0
 136 217 121 203 112 203 c 0
 107 203 104 207 104 216 c 0
 104 235 155 319 177 336 c 0
EndSplineSet
Validated: 1
EndChar
StartChar: uni0253
Encoding: 595 595 23
Width: 356
VWidth: 0
Flags: HW
LayerCount: 2
Back
Fore
SplineSet
77 536 m 4
 79 539 99 540 125 540 c 4
 133 540 142 540 151 540 c 4
 202 538 217 535 217 526 c 4
 217 525 217 525 217 524 c 4
 214 493 196 426 178 377 c 4
 169 351 163 328 163 322 c 4
 163 322 163 321 163 321 c 4
 163 321 163 321 164 321 c 4
 168 321 185 327 204 336 c 4
 223 346 233 350 241 350 c 4
 249 350 255 346 267 337 c 4
 303 311 321 273 321 219 c 4
 321 214 320 208 320 202 c 4
 317 153 313 141 278 97 c 4
 235 40 178 8 131 8 c 4
 106 8 83 18 67 37 c 4
 47 62 36 94 36 126 c 4
 36 136 37 145 39 155 c 4
 43 172 68 252 94 333 c 4
 120 414 142 486 142 492 c 4
 142 506 122 515 92 515 c 4
 70 515 64 524 77 536 c 4
268 299 m 4
 262 311 252 316 239 316 c 4
 212 316 175 289 148 245 c 4
 121 203 103 132 103 85 c 4
 103 68 105 55 110 47 c 4
 114 40 122 37 131 37 c 4
 147 37 169 48 188 67 c 4
 232 111 273 216 273 272 c 4
 273 283 271 293 268 299 c 4
EndSplineSet
Validated: 1
EndChar
StartChar: uni026C
Encoding: 620 620 24
Width: 350
VWidth: 0
Flags: HW
LayerCount: 2
Back
Fore
SplineSet
244 500 m 4
 248 509 254 513 270 513 c 4
 274 513 279 512 285 512 c 4
 317 510 321 507 324 485 c 4
 324 480 325 474 325 468 c 4
 325 458 324 448 322 440 c 4
 315 414 259 350 242 350 c 4
 235 350 232 350 232 354 c 4
 232 359 238 370 252 396 c 6
 274 436 l 5
 256 460 l 6
 248 472 243 484 243 493 c 4
 243 495 243 498 244 500 c 4
111 508 m 4
 146 509 181 511 189 512 c 4
 190 512 191 512 192 512 c 4
 200 512 203 508 203 498 c 4
 203 487 200 469 192 442 c 4
 147 277 104 82 104 46 c 4
 104 44 105 42 105 41 c 4
 106 38 109 36 111 36 c 4
 124 36 149 65 169 105 c 4
 179 126 194 143 201 143 c 4
 207 143 209 140 209 134 c 4
 209 114 180 67 142 29 c 4
 126 13 111 6 96 6 c 4
 71 6 51 29 45 70 c 4
 45 73 44 76 44 79 c 4
 44 120 70 231 118 393 c 4
 123 410 127 436 127 451 c 4
 127 477 125 479 91 481 c 4
 71 483 54 489 52 494 c 4
 52 495 52 495 52 496 c 4
 52 503 70 506 111 508 c 4
EndSplineSet
Validated: 1
EndChar
StartChar: uni0271
Encoding: 625 625 25
Width: 555
VWidth: 0
Flags: HW
LayerCount: 2
Back
Fore
SplineSet
376 288 m 0
 403 317 450 339 475 339 c 0
 499 339 507 334 515 316 c 0
 521 302 524 286 524 266 c 0
 524 233 515 191 496 138 c 0
 445 -1 420 -82 420 -110 c 0
 420 -115 421 -119 423 -120 c 0
 430 -125 437 -127 443 -127 c 0
 457 -127 469 -115 480 -91 c 0
 485 -78 494 -66 499 -66 c 0
 504 -66 507 -66 507 -70 c 0
 507 -74 503 -83 495 -102 c 0
 477 -146 449 -170 419 -170 c 0
 405 -170 391 -165 377 -154 c 0
 365 -143 358 -127 358 -103 c 0
 358 -70 370 -22 394 46 c 0
 445 193 466 248 475 253 c 0
 479 256 481 262 481 269 c 0
 481 283 473 301 463 303 c 2
 462 303 l 2
 453 303 407 276 392 263 c 0
 375 248 362 240 354 237 c 1
 356 226 358 218 360 217 c 2
 360 217 361 216 361 215 c 0
 361 197 308 51 289 22 c 0
 286 16 271 11 257 11 c 0
 254 11 252 11 250 11 c 0
 242 11 237 12 237 21 c 0
 237 35 248 69 270 149 c 0
 295 234 305 270 305 285 c 0
 305 296 300 296 290 296 c 2
 289 296 l 2
 278 296 264 291 256 285 c 0
 238 272 164 127 143 65 c 0
 128 21 127 20 93 20 c 0
 72 20 59 24 59 30 c 0
 60 47 103 178 110 183 c 0
 114 186 121 206 127 228 c 0
 131 243 133 256 133 267 c 0
 133 285 128 296 119 296 c 0
 105 296 77 259 62 222 c 0
 52 197 41 184 31 184 c 0
 23 184 16 189 16 196 c 0
 16 215 59 288 88 319 c 0
 106 338 123 347 139 347 c 0
 163 347 182 326 192 285 c 0
 195 270 203 262 211 262 c 0
 217 262 223 268 227 279 c 0
 237 310 273 339 303 339 c 0
 343 339 352 325 352 269 c 0
 352 265 352 262 352 258 c 1
 357 266 365 276 376 288 c 0
EndSplineSet
Validated: 1
EndChar
StartChar: uni0272
Encoding: 626 626 26
Width: 393
VWidth: 0
Flags: HW
LayerCount: 2
Back
Fore
SplineSet
115 314 m 4
 126 319 133 321 141 321 c 4
 151 321 159 316 174 305 c 4
 190 292 196 280 196 257 c 4
 196 221 205 220 225 254 c 4
 233 268 252 289 269 302 c 4
 285 314 301 319 316 319 c 4
 336 319 352 310 360 292 c 4
 363 285 365 274 365 261 c 4
 365 218 350 146 324 68 c 4
 304 9 297 -29 297 -78 c 4
 296 -163 289 -182 257 -182 c 4
 228 -182 215 -169 215 -139 c 4
 215 -133 215 -127 216 -120 c 4
 221 -83 252 -2 263 6 c 4
 272 12 305 97 316 143 c 4
 331 205 337 236 337 254 c 4
 337 266 334 273 328 279 c 4
 323 284 319 287 313 287 c 4
 307 287 299 283 283 274 c 4
 266 264 237 235 220 210 c 4
 190 166 153 65 153 26 c 4
 153 8 149 6 110 6 c 4
 82 6 68 10 68 17 c 4
 68 35 101 145 116 177 c 4
 128 203 135 235 135 257 c 4
 135 271 132 280 126 280 c 4
 109 280 75 240 57 201 c 4
 48 180 36 169 26 169 c 4
 20 169 16 172 12 178 c 4
 11 179 11 181 11 183 c 4
 11 209 81 300 115 314 c 4
EndSplineSet
Validated: 1
EndChar
StartChar: uni028B
Encoding: 651 651 27
Width: 284
VWidth: 0
Flags: HW
LayerCount: 2
Back
Fore
SplineSet
221 255 m 0
 194.538085938 255 178 275.141601562 178 310 c 0
 178 320 182 323 193 326 c 0
 199 328 205 329 211 329 c 0
 243 329 259 296 259 248 c 0
 259 201 243 141 209 86 c 0
 180 39 136 11 96 11 c 0
 83 11 71 14 59 20 c 0
 42 29 29 61 29 83 c 0
 29 90 30.7460431327 96.2037169882 34 100 c 4
 40 107 42 120 40 129 c 4
 40 131 39 134 39 137 c 0
 39 150 42 170 47 190 c 0
 62 252 126 417 140 433 c 0
 148 442 152 461 152 477 c 0
 152 493 148 507 141 507 c 0
 126 507 90 475 77 451 c 0
 71 440 63 432 58 432 c 0
 53 432 50 435 50 439 c 0
 50 449 62 468 83 490 c 0
 109 517 121 524 145 524 c 0
 180 524 196 508 196 474 c 0
 196 447 187 410 167 360 c 0
 127 259 76 96 76 69 c 0
 76 44 90 31 109 31 c 0
 126 31 146 40 165 60 c 0
 205 101 236 185 236 228 c 0
 236 244 232 255 221 255 c 0
EndSplineSet
Validated: 1
EndChar
StartChar: uni1D7D
Encoding: 7549 7549 31
Width: 524
VWidth: 0
Flags: HW
LayerCount: 2
Back
Fore
SplineSet
123 176 m 0
 119 176 110 181 110 190 c 0
 110 210 142 272 169 300 c 0
 188 320 197 326 216 326 c 0
 237 326 246 326 260 324 c 0
 273 322 267 322 271 322 c 0
 275 322 269 321 280 320 c 0
 295 319 288 320 298 320 c 0
 300 320 302 319 304 319 c 0
 321 315 332 315 339 315 c 0
 344 315 347 315 349 315 c 0
 362 320 396 322 425 322 c 0
 449 322 471 320 475 316 c 1
 475 313 l 2
 475 297 454 206 435 138 c 0
 430 125 420 89 412 59 c 2
 397 6 l 1
 312 10 l 1
 226 15 l 1
 216 -24 l 2
 210 -46 202 -68 198 -73 c 0
 195 -78 192 -89 192 -101 c 0
 192 -104 193 -108 193 -111 c 0
 195 -136 199 -140 224 -143 c 0
 240 -146 254 -151 255 -157 c 0
 255 -165 156 -173 94 -173 c 0
 90 -173 86 -173 82 -173 c 0
 58 -173 41 -172 41 -162 c 0
 41 -153 59 -144 83 -144 c 0
 110 -143 141 -105 141 -73 c 0
 141 -60 146 -37 152 -19 c 0
 167 25 190 142 209 182 c 0
 224 214 232 250 232 273 c 0
 232 286 229 294 223 294 c 0
 201 294 176 266 156 220 c 0
 144 191 133 176 123 176 c 0
356 301 m 1
 356 299 356 298 354 298 c 0
 350 298 303 291 297 279 c 0
 281 247 236 66 236 37 c 0
 236 35 237 34 237 33 c 0
 240 29 266 25 295 25 c 2
 348 25 l 1
 362 73 l 2
 398 198 416 266 416 286 c 0
 416 299 393 299 370 299 c 0
 364 299 360 300 356 301 c 1
EndSplineSet
Validated: 1
EndChar
StartChar: uni1E41
Encoding: 7745 7745 7
Width: 554
VWidth: 0
Flags: HW
LayerCount: 2
Fore
SplineSet
417 322 m 0
 436 339 449 347 460 347 c 0
 470 347 479 339 489 321 c 0
 498 307 502 289 502 268 c 0
 502 243 496 213 484 182 c 0
 461 124 453 106 446 91 c 0
 441 81 438 67 438 56 c 0
 438 43 441 33 447 33 c 0
 452 33 468 50 483 72 c 0
 499 94 517 120 525 130 c 0
 540 148 540 148 540 131 c 0
 540 107 458 7 438 7 c 0
 422 7 396 54 396 83 c 0
 396 100 413 161 429 199 c 0
 451 254 455 267 455 286 c 0
 455 299 451 305 444 305 c 0
 436 305 424 297 407 280 c 0
 377 251 334 171 297 78 c 0
 274 18 272 15 245 15 c 0
 223 15 216 19 216 30 c 0
 217 57 267 225 276 228 c 0
 281 229 284 248 284 268 c 0
 284 293 279 306 270 306 c 0
 260 306 245 293 225 268 c 0
 205 242 177 204 171 204 c 0
 170 204 169 207 168 210 c 1
 169 201 171 194 173 194 c 0
 178 192 177 181 169 166 c 0
 162 153 156 138 156 132 c 0
 156 127 147 103 135 80 c 0
 124 56 114 33 114 27 c 0
 114 18 92 10 73 10 c 0
 68 10 62 10 58 12 c 0
 49 16 45 24 48 32 c 0
 50 39 60 74 71 109 c 0
 81 144 97 184 106 198 c 0
 116 215 123 250 123 273 c 0
 123 287 120 297 115 297 c 0
 101 297 71 258 59 225 c 0
 51 201 37 186 28 186 c 0
 24 186 21 189 21 197 c 0
 21 200 22 204 23 209 c 0
 31 241 53 287 73 317 c 0
 84 333 96 340 113 340 c 0
 149 340 165 313 165 250 c 0
 165 240 165 231 166 223 c 1
 169 229 196 264 210 289 c 0
 234 330 241 336 268 339 c 0
 271 339 274 339 277 339 c 0
 311 339 320 321 326 253 c 2
 332 191 l 1
 359 243 l 2
 374 272 400 307 417 322 c 0
EndSplineSet
Validated: 1
EndChar
StartChar: uni1E45
Encoding: 7749 7749 34
Width: 402
VWidth: 0
Flags: HW
LayerCount: 2
Fore
SplineSet
186 216 m 1053
102 344 m 4,1,2
 116 355 130 360 143 360 c 4,3,4
 159 360 173 352 181 336 c 4,5,6
 186 324 189 304 189 280 c 4,7,8
 189 269 188 258 188 246 c 5,9,10
 188 248 189 249 189 249 c 6,11,12
 189 249 190 248 190 248 c 5,13,14
 197 248 224 280 249 307 c 4,15,16
 280 341 296 351 317 351 c 4,17,18
 352 351 374 323 374 280 c 4,19,20
 374 251 349 163 324 108 c 4,21,22
 311 78 305 60 305 49 c 4,23,24
 305 41 308 37 315 34 c 4,25,26
 317 33 319 33 321 33 c 4,27,28
 329 33 339 37 347 45 c 4,29,30
 357 54 365 56 365 51 c 4,31,32
 365 35 318 3 295 3 c 4,33,34
 266 3 248 31 248 70 c 4,35,36
 248 76 248 82 249 89 c 4,37,38
 254 123 295 215 318 246 c 4,39,40
 322 251 328 270 332 289 c 4,41,42
 334 299 335 307 335 312 c 4,43,44
 335 322 331 324 320 324 c 4,45,46
 309 324 284 306 262 283 c 4,47,48
 240 260 190 214 185 214 c 4,49,50
 185 214 184 214 184 215 c 5,51,52
 179 176 170 138 158 113 c 4,53,54
 146 89 134 57 130 42 c 4,55,56
 122 10 112 3 73 3 c 4,57,58
 53 3 44 8 44 21 c 4,59,60
 44 31 50 46 61 67 c 4,61,62
 70 85 85 121 94 147 c 4,63,64
 103 174 115 200 120 206 c 4,65,66
 130 217 154 294 154 315 c 4,67,68
 154 322 152 325 147 325 c 4,69,70
 136 325 112 304 87 269 c 4,71,72
 62 233 42 214 33 214 c 4,73,74
 28 214 26 218 26 226 c 4,75,76
 26 243 79 325 102 344 c 4,1,2
EndSplineSet
Validated: 1
EndChar
StartChar: uni1E7F
Encoding: 7807 7807 14
Width: 341
VWidth: 0
Flags: HW
LayerCount: 2
Fore
SplineSet
106 319 m 4
 117 325 128 328 137 328 c 4
 163 328 179 302 179 260 c 4
 179 233 173 200 159 163 c 4
 142 118 134 84 134 61 c 4
 134 42 140 31 153 31 c 4
 166 31 186 43 212 68 c 4
 246 100 254 115 269 172 c 4
 279 211 285 230 285 240 c 4
 285 251 279 250 267 252 c 4
 249 254 234 280 234 301 c 4
 234 306 234 311 236 315 c 4
 240 325 252 330 266 330 c 4
 281 330 297 324 303 312 c 4
 308 303 312 266 312 231 c 4
 312 178 308 159 288 120 c 4
 275 95 248 58 231 39 c 4
 200 7 196 5 147 5 c 4
 97 5 95 6 85 33 c 4
 79 49 77 72 77 95 c 4
 77 143 87 194 103 207 c 4
 106 209 117 229 128 250 c 4
 137 268 142 282 142 290 c 4
 142 297 139 300 134 300 c 4
 126 300 113 292 95 274 c 4
 73 253 56 241 47 241 c 4
 42 241 40 244 40 250 c 4
 40 261 84 307 106 319 c 4
EndSplineSet
Validated: 1
EndChar
StartChar: uni1E89
Encoding: 7817 7817 15
Width: 482
VWidth: 0
Flags: HW
LayerCount: 2
Fore
SplineSet
236 93 m 0
 236 105 239 120 239 131 c 0
 239 140 240 148 236 150 c 1
 236 150 224 135 224 134 c 0
 224 119 168 41 145 26 c 0
 135 19 114 13 101 13 c 0
 81 13 74 18 65 38 c 0
 61 48 59 62 59 77 c 0
 59 107 66 143 79 168 c 0
 101 210 123 275 123 294 c 0
 123 297 123 299 121 299 c 0
 120 299 87 271 65 252 c 1
 64 245 61 238 57 236 c 0
 53 233 49 224 49 215 c 0
 49 199 35 185 23 185 c 0
 15 185 9 191 9 200 c 0
 9 205 10 211 13 217 c 0
 13 217 13 218 13 218 c 0
 13 227 21 244 33 257 c 0
 45 270 104 331 113 331 c 0
 121 331 129 326 140 317 c 0
 155 305 164 289 164 264 c 0
 164 229 147 175 113 82 c 0
 107 66 103 50 103 42 c 0
 103 40 104 38 104 37 c 0
 106 33 110 31 115 31 c 0
 135 31 174 65 203 116 c 0
 208 125 223 145 230 151 c 1
 229 152 229 154 229 155 c 0
 229 160 233 168 241 179 c 0
 251 194 259 208 259 213 c 0
 259 224 294 309 304 321 c 0
 309 328 315 331 322 331 c 0
 330 331 346 327 346 314 c 0
 346 300 338 272 318 213 c 0
 299 156 281 92 278 70 c 0
 277 59 276 50 276 44 c 0
 276 32 279 30 288 30 c 0
 305 30 357 67 376 92 c 0
 414 142 433 187 433 219 c 0
 433 238 427 252 414 260 c 0
 400 269 394 282 394 295 c 0
 394 312 408 329 428 329 c 0
 447 329 456 302 456 246 c 0
 456 197 451 176 431 136 c 0
 395 62 329 5 286 5 c 0
 249 5 236 55 236 93 c 0
EndSplineSet
Validated: 1
EndChar
StartChar: uniA77F
Encoding: 42879 42879 28
Width: 383
VWidth: 0
Flags: HW
LayerCount: 2
Back
Fore
SplineSet
167 312 m 4
 180 319 204 325 219 325 c 4
 241 325 250 320 261 300 c 4
 278 269 284 268 291 296 c 4
 295 312 301 317 321 317 c 4
 337 317 345 315 345 301 c 4
 345 288 339 264 326 222 c 4
 314 184 297 126 287 92 c 4
 277 58 262 9 253 -15 c 4
 243 -44 237 -79 237 -108 c 4
 237 -132 241 -152 249 -158 c 4
 255 -163 264 -166 274 -166 c 4
 276 -166 279 -165 281 -165 c 4
 294 -163 298 -160 298 -146 c 4
 298 -141 298 -135 297 -128 c 4
 297 -125 297 -122 297 -119 c 4
 297 -93 306 -78 321 -78 c 4
 326 -78 331 -80 337 -83 c 4
 348 -89 354 -100 354 -112 c 4
 354 -125 348 -140 336 -154 c 4
 320 -173 292 -182 264 -182 c 4
 232 -182 200 -169 189 -145 c 4
 183 -132 180 -115 180 -97 c 4
 180 -62 191 -22 211 15 c 4
 229 48 218 53 189 26 c 4
 169 6 155 0 132 0 c 4
 95 1 79 11 60 48 c 4
 51 66 46 87 46 109 c 4
 46 185 96 276 167 312 c 4
258 264 m 4
 252 283 244 288 219 290 c 4
 217 290 214 290 212 290 c 4
 175 290 150 261 129 195 c 4
 114 146 107 102 107 72 c 4
 107 52 110 38 117 31 c 4
 125 23 131 18 138 18 c 4
 145 18 154 24 172 36 c 4
 215 65 262 176 262 239 c 4
 262 248 260 257 258 264 c 4
EndSplineSet
Validated: 1
EndChar
StartChar: uniFB00
Encoding: 64256 64256 29
Width: 492
VWidth: 0
Flags: HW
LayerCount: 2
Back
Fore
SplineSet
283 442 m 4
 303 455 320 462 335 462 c 4
 349 462 362 456 375 443 c 4
 388 430 400 423 409 423 c 4
 416 423 421 426 424 434 c 4
 428 446 452 452 452 442 c 4
 452 439 442 425 430 411 c 4
 404 381 370 310 370 288 c 4
 370 278 373 275 388 275 c 4
 393 275 400 275 409 276 c 4
 416 276 421 277 426 277 c 4
 444 277 448 273 450 263 c 4
 450 261 451 259 451 257 c 4
 451 252 448 250 438 250 c 4
 432 250 423 251 411 252 c 4
 401 253 393 254 387 254 c 4
 361 254 359 237 329 134 c 4
 271 -69 184 -193 98 -193 c 4
 72 -193 63 -188 42 -162 c 4
 26 -142 18 -130 18 -121 c 4
 18 -114 22 -109 29 -103 c 4
 35 -98 42 -84 44 -71 c 4
 51 -34 108 162 120 190 c 4
 127 204 132 223 132 233 c 4
 132 248 127 250 94 250 c 4
 70 250 60 253 60 258 c 4
 60 259 60 259 60 260 c 4
 62 267 80 270 107 270 c 6
 151 270 l 5
 178 322 l 6
 208 379 236 411 283 442 c 4
353 430 m 4
 353 436 348 439 341 439 c 4
 326 439 300 427 280 410 c 4
 246 379 225 343 217 300 c 6
 212 275 l 5
 266 275 l 5
 320 275 l 5
 338 312 l 6
 348 331 352 342 352 350 c 4
 352 355 350 360 347 365 c 4
 340 375 337 387 337 397 c 4
 337 407 340 415 345 418 c 4
 350 421 353 426 353 430 c 4
308 236 m 4
 309 238 310 240 310 242 c 4
 310 249 299 250 260 250 c 4
 215 250 205 247 198 234 c 4
 193 225 189 220 189 214 c 0
 189 195 134 25 107 -33 c 4
 94 -63 88 -77 88 -85 c 4
 88 -91 90 -93 95 -96 c 4
 102 -100 105 -106 105 -117 c 4
 105 -122 104 -128 103 -136 c 4
 101 -146 100 -152 100 -157 c 4
 100 -167 104 -168 115 -168 c 4
 125 -168 135 -163 137 -156 c 4
 140 -149 147 -144 153 -144 c 4
 172 -144 210 -75 233 -2 c 4
 293 191 303 222 308 236 c 4
EndSplineSet
Validated: 1
EndChar
